# xmcd CD database file
#
# Track frame offsets:
#	150
#	13672
#	23746
#	59361
#	75579
#	93510
#	107874
#	146656
#	165087
#
# Disc length: 2435 seconds
#
# Revision: 0
# Processed by: cddbd v1.5.2PL0 Copyright (c) Steve Scherf et al.
# Submitted via: CDex 1.51
#
DISCID=66098109
DTITLE=Trestad Consert Band - Trestad Consert Band 1970
DYEAR=1970
DGENRE=Jazz
TTITLE0=Bandology
TTITLE1=Polka ur Guldaldern
TTITLE2=Man of La Mancha
TTITLE3=Michelle
TTITLE4=Pavanne
TTITLE5=Yesterday
TTITLE6=Mr Lucky
TTITLE7=Autum Leaves
TTITLE8=March of the Toys
EXTD=YEAR: 1970
EXTT0=
EXTT1=
EXTT2=
EXTT3=
EXTT4=
EXTT5=
EXTT6=
EXTT7=
EXTT8=
PLAYORDER=
